<?xml version="1.0" encoding="UTF-8" standalone="no"?>
<!-- Created with Inkscape (http://www.inkscape.org/) -->

<svg
   width="44.933647"
   height="41"
   viewBox="0 0 11.888694 10.847917"
   version="1.1"
   id="svg5"
   xml:space="preserve"
   xmlns="http://www.w3.org/2000/svg"
   xmlns:svg="http://www.w3.org/2000/svg"><defs
     id="defs2" /><g
     id="layer1"
     transform="translate(-29.699937,-159.46435)"><g
       id="g69"
       style="fill:#009ff5;fill-opacity:1;stroke-width:2.86357"
       transform="matrix(0.71589064,0,0,0.71589064,-49.076649,146.93625)"><path
         style="color:#000000;fill:#009ff5;fill-opacity:1;stroke-width:2.86357;stroke-linecap:round;stroke-linejoin:round;-inkscape-stroke:none"
         d="m 114.16727,17.5 c -0.29231,-4.5e-5 -0.66615,0.236955 -0.83489,0.529297 l -3.21038,5.560547 c -0.16883,0.292342 -0.0687,0.529342 0.22371,0.529297 h 4.23633 c 0.29232,4e-5 0.66614,-0.236959 0.83488,-0.529297 l 0.91677,-1.587891 h 7.40821 c 0.29232,4e-5 0.66614,-0.236959 0.83488,-0.529297 l 1.98802,-3.443359 c 0.16883,-0.292338 0.0687,-0.529337 -0.2237,-0.529297 -4.05795,0 -8.1159,1e-6 -12.17383,0 z m 1.47284,6.613281 c -0.29232,-4e-5 -0.66615,0.236959 -0.83488,0.529297 l -2.20228,3.814453 c -0.0877,0.153118 -0.10467,0.298438 -0.0465,0.398438 l 2.11863,3.667968 c 0.17165,0.295308 0.84223,0.05352 1.10504,-0.398437 l 2.02636,-3.509766 h 2.11719 c 0.29232,4e-5 0.66614,-0.236959 0.83488,-0.529297 l 1.98803,-3.443359 c 0.16882,-0.292338 0.0687,-0.529337 -0.2237,-0.529297 z"
         id="path69" /></g></g></svg>
