<svg xmlns="http://www.w3.org/2000/svg" xml:space="preserve" viewBox="0 0 8.47 8.47"><title>FPVA.ru fav</title><path fill="none" d="M0 0h8.47v8.47H0z" opacity=".51"/><path fill="#1a1a1a" d="M.87 1.4C-.97 3.62.61 7.86 3.47 8.34c2.84.48 5.72-3.01 4.7-5.72-1-2.7-5.46-3.45-7.3-1.22"/><path fill="#009ff5" stroke-width="2.86" d="M114.17 17.5c-.3 0-.67.24-.84.53l-3.2 5.56c-.18.3-.08.53.22.53h4.23c.3 0 .67-.24.84-.53l.91-1.59h7.41c.3 0 .67-.24.84-.53l1.98-3.44c.17-.3.07-.53-.22-.53zm1.47 6.61c-.3 0-.67.24-.83.53l-2.2 3.82q-.14.24-.05.4l2.12 3.66c.17.3.84.06 1.1-.4l2.03-3.5h2.11c.3 0 .67-.24.84-.53l1.99-3.45c.17-.29.07-.53-.23-.53z" color="#000" style="-inkscape-stroke:none" transform="translate(-37.1 -4.4)scale(.34921)"/></svg>
