<svg xmlns="http://www.w3.org/2000/svg" xml:space="preserve" viewBox="0 0 57.55 52.92"><title>FPVA.ru big logo 2</title><defs><linearGradient id="b"><stop offset="0" stop-color="#0046ff"/><stop offset="1" stop-color="#5c00ff"/></linearGradient><linearGradient id="a"><stop offset="0" stop-color="#0046ff"/><stop offset="1" stop-color="#ac00ff"/></linearGradient><linearGradient id="c" x1="114.21" x2="120.31" y1="18.26" y2="31.68" gradientUnits="userSpaceOnUse" href="#a"/><linearGradient id="e" x1="114.21" x2="118.78" y1="25.83" y2="34.98" gradientUnits="userSpaceOnUse" href="#b"/><filter id="d" width="1.11" height="1.12" x="-.05" y="-.06" color-interpolation-filters="sRGB"><feGaussianBlur stdDeviation=".33"/></filter></defs><path fill="#333" stroke="none" stroke-width=".76" d="M114.17 17.12c-.5 0-.92.3-1.17.72l-3.2 5.56c-.37.63.07 1.1.55 1.1h4.1l-2.17 3.77c-.14.22-.2.51-.05.78l2.12 3.66c.33.58 1.34.32 1.76-.4l1.92-3.32h1.9c.5 0 .91-.29 1.16-.71l1.98-3.45c.37-.63-.07-1.1-.55-1.1h-6.75l.78-1.35h7.2c.49 0 .9-.3 1.15-.72l2-3.44c.36-.63-.08-1.1-.56-1.1z" color="#000" style="-inkscape-stroke:none" transform="translate(-348.18 -51.96)scale(3.1751)"/><path fill="#fff" stroke="none" stroke-width=".76" d="M114.17 17.12c-.5 0-.92.3-1.17.72l-3.2 5.56c-.37.63.07 1.1.55 1.1h4.1l-2.17 3.77c-.14.22-.2.51-.05.78l2.12 3.66c.33.58 1.34.32 1.76-.4l1.92-3.32h1.9c.5 0 .91-.29 1.16-.71l1.98-3.45c.37-.63-.07-1.1-.55-1.1h-6.75l.78-1.35h7.2c.49 0 .9-.3 1.15-.72l2-3.44c.36-.63-.08-1.1-.56-1.1z" color="#000" style="-inkscape-stroke:none" transform="translate(-345.78 -54.36)scale(3.1751)"/><path fill="url(#c)" stroke-width="2.86" d="M114.17 17.5c-.3 0-.67.24-.84.53l-3.2 5.56c-.18.3-.08.53.22.53h4.23c.3 0 .67-.24.84-.53l.91-1.59h7.41c.3 0 .67-.24.84-.53l1.98-3.44c.17-.3.07-.53-.22-.53zm1.47 6.61c-.3 0-.67.24-.83.53l-2.2 3.82q-.14.24-.05.4l2.12 3.66c.17.3.84.06 1.1-.4l2.03-3.5h2.11c.3 0 .67-.24.84-.53l1.99-3.45c.17-.29.07-.53-.23-.53z" color="#000" style="-inkscape-stroke:none" transform="translate(-345.78 -54.36)scale(3.1751)"/><g fill="#0046ff" stroke-width="2.86" filter="url(#d)" transform="translate(-345.78 -78.42)scale(3.1751)"><path fill="url(#e)" d="M114.21 25.83c-.29 0-.66.24-.83.53l-2.5 4.37c-.17.29-.07.53.22.53h3.2c.29 0 .66-.24.83-.53l1-1.67h7.23c.3 0 .67-.24.84-.53l1.35-2.17c.17-.29.07-.53-.23-.53zm1.74 6.38c-.3 0-.67.24-.84.53l-1.9 3.3q-.12.24-.04.4l1.48 2.69c.17.3.84.05 1.1-.4l1.68-2.92h2.11c.3 0 .67-.23.84-.53l1.44-2.54c.17-.3.07-.53-.22-.53z" color="#000" style="-inkscape-stroke:none"/></g></svg>
