<svg xmlns="http://www.w3.org/2000/svg" xml:space="preserve" viewBox="0 0 11.889 10.848"><title>FPVA.ru logo</title><path fill="#009ff5" stroke-width="2.864" d="M114.167 17.5c-.292 0-.666.237-.835.53l-3.21 5.56c-.169.292-.069.53.224.53h4.236c.292 0 .666-.238.835-.53l.917-1.588h7.408c.292 0 .666-.237.835-.53l1.988-3.443c.169-.292.068-.529-.224-.529zm1.473 6.613c-.292 0-.666.237-.835.53l-2.202 3.814c-.088.153-.105.298-.047.398l2.12 3.668c.17.296.841.054 1.104-.398l2.026-3.51h2.118c.292 0 .666-.237.835-.53l1.988-3.442c.168-.293.068-.53-.224-.53z" color="#000" style="-inkscape-stroke:none" transform="translate(-78.777 -12.528)scale(.7159)"/></svg>
