<?xml version="1.0" encoding="UTF-8" standalone="no"?>
<!-- Created with Inkscape (http://www.inkscape.org/) -->

<svg
   width="217.49951"
   height="200"
   viewBox="0 0 57.546743 52.916668"
   version="1.1"
   id="svg5"
   xml:space="preserve"
   xmlns:xlink="http://www.w3.org/1999/xlink"
   xmlns="http://www.w3.org/2000/svg"
   xmlns:svg="http://www.w3.org/2000/svg"><defs
     id="defs2"><linearGradient
       id="linearGradient67"><stop
         style="stop-color:#0046ff;stop-opacity:1;"
         offset="0"
         id="stop68" /><stop
         style="stop-color:#5c00ff;stop-opacity:1;"
         offset="1"
         id="stop69" /></linearGradient><linearGradient
       id="linearGradient66"><stop
         style="stop-color:#0046ff;stop-opacity:1;"
         offset="0"
         id="stop66" /><stop
         style="stop-color:#ac00ff;stop-opacity:1;"
         offset="1"
         id="stop67" /></linearGradient><filter
       style="color-interpolation-filters:sRGB"
       id="filter50"
       x="-0.054131641"
       y="-0.059802911"
       width="1.1082633"
       height="1.1196058"><feGaussianBlur
         stdDeviation="0.33451362"
         id="feGaussianBlur50" /></filter><linearGradient
       xlink:href="#linearGradient66"
       id="linearGradient65"
       x1="114.21462"
       y1="18.257662"
       x2="120.30547"
       y2="31.682304"
       gradientUnits="userSpaceOnUse" /><linearGradient
       xlink:href="#linearGradient67"
       id="linearGradient69"
       x1="114.21462"
       y1="25.834169"
       x2="118.77972"
       y2="34.978226"
       gradientUnits="userSpaceOnUse" /></defs><g
     id="layer1"
     transform="translate(-74.47996,-140.8906)"><g
       id="g64"
       transform="matrix(9.0921331,0,0,9.0921331,-265.91397,-1140.1054)"><g
         id="g60"
         transform="matrix(0.34921495,0,0,0.34921495,-0.85677033,135.17623)"
         style="fill:#333333;fill-opacity:1;stroke:#ffffff;stroke-width:0.757652"><path
           style="color:#000000;fill:#333333;fill-opacity:1;stroke:none;stroke-linecap:round;stroke-linejoin:round;-inkscape-stroke:none"
           d="m 114.16797,17.121094 c -0.49712,-7.7e-5 -0.91846,0.293424 -1.16406,0.71875 l -3.21094,5.560547 h 0.002 c -0.36263,0.627946 0.0711,1.097656 0.55081,1.097656 h 4.10547 l -2.17578,3.769531 c -4.7e-4,8.17e-4 -0.002,0.0012 -0.002,0.002 -0.12881,0.224409 -0.19866,0.511352 -0.0449,0.777344 l 2.11914,3.666016 c 0.33269,0.575535 1.34409,0.321152 1.75976,-0.398434 l 1.91797,-3.320312 h 1.89844 c 0.49712,0 0.91652,-0.293431 1.16211,-0.71875 l 1.98828,-3.44336 c 0.36256,-0.6279 -0.071,-1.097656 -0.55081,-1.097656 h -6.75391 l 0.7832,-1.353516 h 7.18946 c 0.49712,0 0.91652,-0.29343 1.16211,-0.71875 l 1.98828,-3.443359 c 0.36254,-0.627856 -0.071,-1.097663 -0.55081,-1.097656 -4.05795,5.9e-5 -8.11591,1e-6 -12.17383,0 -2e-5,0 3e-5,-5.1e-5 1e-5,-5.1e-5 z"
           id="path59" /></g><g
         id="g61"
         transform="matrix(0.34921495,0,0,0.34921495,-0.592187,134.91165)"
         style="fill:#009ff5;stroke:#ffffff;stroke-width:0.757652"><path
           style="color:#000000;fill:#ffffff;stroke:none;stroke-linecap:round;stroke-linejoin:round;-inkscape-stroke:none"
           d="m 114.16797,17.121094 c -0.49712,-7.7e-5 -0.91846,0.293424 -1.16406,0.71875 l -3.21094,5.560547 h 0.002 c -0.36263,0.627946 0.0711,1.097656 0.55081,1.097656 h 4.10547 l -2.17578,3.769531 c -4.7e-4,8.17e-4 -0.002,0.0012 -0.002,0.002 -0.12881,0.224409 -0.19866,0.511352 -0.0449,0.777344 l 2.11914,3.666016 c 0.33269,0.575535 1.34409,0.321152 1.75976,-0.398434 l 1.91797,-3.320312 h 1.89844 c 0.49712,0 0.91652,-0.293431 1.16211,-0.71875 l 1.98828,-3.44336 c 0.36256,-0.6279 -0.071,-1.097656 -0.55081,-1.097656 h -6.75391 l 0.7832,-1.353516 h 7.18946 c 0.49712,0 0.91652,-0.29343 1.16211,-0.71875 l 1.98828,-3.443359 c 0.36254,-0.627856 -0.071,-1.097663 -0.55081,-1.097656 -4.05795,5.9e-5 -8.11591,1e-6 -12.17383,0 -2e-5,0 3e-5,-5.1e-5 1e-5,-5.1e-5 z"
           id="path60" /></g><g
         id="g62"
         style="fill:#009ff5;fill-opacity:1;stroke-width:2.86357"
         transform="matrix(0.34921495,0,0,0.34921495,-0.592187,134.91165)"><path
           style="color:#000000;fill:url(#linearGradient65);fill-opacity:1;stroke-width:2.86357;stroke-linecap:round;stroke-linejoin:round;-inkscape-stroke:none"
           d="m 114.16727,17.5 c -0.29231,-4.5e-5 -0.66615,0.236955 -0.83489,0.529297 l -3.21038,5.560547 c -0.16883,0.292342 -0.0687,0.529342 0.22371,0.529297 h 4.23633 c 0.29232,4e-5 0.66614,-0.236959 0.83488,-0.529297 l 0.91677,-1.587891 h 7.40821 c 0.29232,4e-5 0.66614,-0.236959 0.83488,-0.529297 l 1.98802,-3.443359 c 0.16883,-0.292338 0.0687,-0.529337 -0.2237,-0.529297 -4.05795,0 -8.1159,1e-6 -12.17383,0 z m 1.47284,6.613281 c -0.29232,-4e-5 -0.66615,0.236959 -0.83488,0.529297 l -2.20228,3.814453 c -0.0877,0.153118 -0.10467,0.298438 -0.0465,0.398438 l 2.11863,3.667968 c 0.17165,0.295308 0.84223,0.05352 1.10504,-0.398437 l 2.02636,-3.509766 h 2.11719 c 0.29232,4e-5 0.66614,-0.236959 0.83488,-0.529297 l 1.98803,-3.443359 c 0.16882,-0.292338 0.0687,-0.529337 -0.2237,-0.529297 z"
           id="path61" /></g><g
         id="g63"
         style="fill:#0046ff;fill-opacity:1;stroke-width:2.86357;filter:url(#filter50)"
         transform="matrix(0.34921495,0,0,0.34921495,-0.592187,132.26582)"><path
           style="color:#000000;fill:url(#linearGradient69);fill-opacity:1;stroke-width:2.86357;stroke-linecap:round;stroke-linejoin:round;-inkscape-stroke:none"
           d="m 114.21462,25.83417 c -0.29231,-4.5e-5 -0.66615,0.236955 -0.83489,0.529297 l -2.50008,4.363339 c -0.16883,0.292342 -0.0687,0.529342 0.22371,0.529297 h 3.19407 c 0.29232,4e-5 0.66614,-0.236959 0.83488,-0.529297 l 0.98829,-1.669221 h 7.24247 c 0.29232,4e-5 0.66614,-0.236959 0.83488,-0.529297 l 1.34876,-2.164821 c 0.16883,-0.292338 0.0687,-0.529337 -0.2237,-0.529297 -4.05795,0 -7.05046,1e-6 -11.10839,0 z m 1.73329,6.376515 c -0.29232,-4e-5 -0.66615,0.236959 -0.83488,0.529297 l -1.89449,3.293567 c -0.0877,0.153118 -0.10467,0.298438 -0.0465,0.398438 l 1.47936,2.697227 c 0.17165,0.295308 0.84223,0.05352 1.10504,-0.398437 l 1.67121,-2.917851 h 2.11719 c 0.29232,4e-5 0.66614,-0.236959 0.83488,-0.529297 l 1.44347,-2.543647 c 0.16882,-0.292338 0.0687,-0.529337 -0.2237,-0.529297 z"
           id="path62" /></g></g></g></svg>
