<?xml version="1.0" encoding="UTF-8" standalone="no"?>
<!-- Created with Inkscape (http://www.inkscape.org/) -->

<svg
   width="32"
   height="32"
   viewBox="0 0 8.4666662 8.4666669"
   version="1.1"
   id="svg5"
   xml:space="preserve"
   xmlns="http://www.w3.org/2000/svg"
   xmlns:svg="http://www.w3.org/2000/svg"><defs
     id="defs2" /><g
     id="layer1"
     transform="translate(-13.959795,-135.72413)"><g
       id="g45"><rect
         style="opacity:0.510268;fill:none;fill-opacity:1;stroke-width:1.05833;stroke-linecap:round;stroke-linejoin:round"
         id="rect45"
         width="8.4666662"
         height="8.4666662"
         x="13.959794"
         y="135.72412" /><path
         id="path2"
         style="fill:#1a1a1a;stroke-width:1.05833;stroke-linecap:round;stroke-linejoin:round"
         d="m 14.831148,137.11913 c -1.838413,2.22749 -0.257448,6.46351 2.590795,6.94187 2.848213,0.47835 5.726279,-3.0087 4.716437,-5.71464 -1.009876,-2.70588 -5.468869,-3.45467 -7.307232,-1.22723 z" /><g
         id="g5"
         style="fill:#009ff5;fill-opacity:1;stroke-width:2.86357"
         transform="matrix(0.34921495,0,0,0.34921495,-23.134157,131.32496)"><path
           style="color:#000000;fill:#009ff5;fill-opacity:1;stroke-width:2.86357;stroke-linecap:round;stroke-linejoin:round;-inkscape-stroke:none"
           d="m 114.16727,17.5 c -0.29231,-4.5e-5 -0.66615,0.236955 -0.83489,0.529297 l -3.21038,5.560547 c -0.16883,0.292342 -0.0687,0.529342 0.22371,0.529297 h 4.23633 c 0.29232,4e-5 0.66614,-0.236959 0.83488,-0.529297 l 0.91677,-1.587891 h 7.40821 c 0.29232,4e-5 0.66614,-0.236959 0.83488,-0.529297 l 1.98802,-3.443359 c 0.16883,-0.292338 0.0687,-0.529337 -0.2237,-0.529297 -4.05795,0 -8.1159,1e-6 -12.17383,0 z m 1.47284,6.613281 c -0.29232,-4e-5 -0.66615,0.236959 -0.83488,0.529297 l -2.20228,3.814453 c -0.0877,0.153118 -0.10467,0.298438 -0.0465,0.398438 l 2.11863,3.667968 c 0.17165,0.295308 0.84223,0.05352 1.10504,-0.398437 l 2.02636,-3.509766 h 2.11719 c 0.29232,4e-5 0.66614,-0.236959 0.83488,-0.529297 l 1.98803,-3.443359 c 0.16882,-0.292338 0.0687,-0.529337 -0.2237,-0.529297 z"
           id="path5" /></g></g></g></svg>
